<svg width="209.63508300781248px" height="74.01750488281249px" xmlns="http://www.w3.org/2000/svg" viewBox="145.18245849609377 37.991247558593756 209.63508300781248 74.01750488281249" style="background: rgba(0, 0, 0, 0);" preserveAspectRatio="xMidYMid"><defs><filter id="editing-extrusion" x="-100%" y="-100%" width="300%" height="300%"><feFlood result="color1" flood-color="#444"></feFlood><feConvolveMatrix order="8,8" divisor="1" kernelMatrix="1 0 0 0 0 0 0 0 0 1 0 0 0 0 0 0 0 0 1 0 0 0 0 0 0 0 0 1 0 0 0 0 0 0 0 0 1 0 0 0 0 0 0 0 0 1 0 0 0 0 0 0 0 0 1 0 0 0 0 0 0 0 0 1" in="SourceAlpha" result="extrude"></feConvolveMatrix><feComposite in="color1" in2="extrude" result="comp-extrude" operator="in"></feComposite><feOffset dx="4" dy="4" in="comp-extrude" result="offset-extrude"></feOffset><feMerge><feMergeNode in="offset-extrude"></feMergeNode><feMergeNode in="SourceGraphic"></feMergeNode></feMerge></filter></defs><g filter="url(#editing-extrusion)"><g transform="translate(181.7124972641468, 87.57999992370605)"><path d="M17.68-3.77L17.68-3.77L17.68-3.77Q17.68-2.28 19.21-1.84L19.21-1.84L19.21-1.84Q18.84-0.58 17.37 0.10L17.37 0.10L17.37 0.10Q16.15 0.68 14.81 0.68L14.81 0.68L14.81 0.68Q13.46 0.68 12.77 0.32L12.77 0.32L12.77 0.32Q12.07-0.03 11.70-0.61L11.70-0.61L11.70-0.61Q11.08-1.50 11.08-3.16L11.08-3.16L11.08-3.16Q11.08-4.15 11.63-6.87L11.63-6.87L12.10-9.45L12.10-9.45Q12.68-12.41 12.68-13.50L12.68-13.50L12.68-13.50Q12.68-15.40 11.63-15.40L11.63-15.40L11.63-15.40Q10.30-15.40 9.45-13.46L9.45-13.46L9.45-13.46Q9.11-12.72 8.87-11.59L8.87-11.59L6.56 0L-0.27 0.68L4.52-23.80L11.36-24.48L11.08-23.12L11.08-23.12Q10.13-17.88 9.32-16.12L9.32-16.12L9.32-16.12Q11.22-18.02 14.72-18.02L14.72-18.02L14.72-18.02Q18.43-18.02 19.11-15.57L19.11-15.57L19.11-15.57Q19.35-14.79 19.35-14.11L19.35-14.11L19.35-14.11Q19.35-13.43 19.30-12.90L19.30-12.90L19.30-12.90Q19.24-12.38 19.07-11.42L19.07-11.42L18.63-8.98L17.85-5.13L17.85-5.13Q17.68-4.35 17.68-3.77ZM23.44-1.02L23.44-1.02L23.44-1.02Q22.64-1.90 22.29-3.30L22.29-3.30L22.29-3.30Q21.93-4.69 21.93-6.97L21.93-6.97L21.93-6.97Q21.93-9.25 22.71-11.32L22.71-11.32L22.71-11.32Q23.49-13.40 24.92-14.89L24.92-14.89L24.92-14.89Q27.85-18.02 32.67-18.02L32.67-18.02L32.67-18.02Q34.41-18.02 35.67-17.44L35.67-17.44L41.48-18.02L38.96-4.76L38.96-4.76Q38.86-4.35 38.86-3.60L38.86-3.60L38.86-3.60Q38.86-2.86 39.32-2.38L39.32-2.38L39.32-2.38Q39.78-1.90 40.46-1.84L40.46-1.84L40.46-1.84Q40.12-0.68 38.88 0L38.88 0L38.88 0Q37.64 0.68 36.24 0.68L36.24 0.68L36.24 0.68Q34.85 0.68 33.92 0.15L33.92 0.15L33.92 0.15Q32.98-0.37 32.71-1.26L32.71-1.26L32.71-1.26Q32.16-0.41 31.01 0.14L31.01 0.14L31.01 0.14Q29.85 0.68 28.31 0.68L28.31 0.68L28.31 0.68Q26.76 0.68 25.50 0.27L25.50 0.27L25.50 0.27Q24.24-0.14 23.44-1.02ZM30.62-14.82L30.62-14.82L30.62-14.82Q30.23-14.21 29.89-13.18L29.89-13.18L29.89-13.18Q29.55-12.14 28.99-9.37L28.99-9.37L28.99-9.37Q28.42-6.60 28.42-4.62L28.42-4.62L28.42-4.62Q28.42-2.65 28.73-2.07L28.73-2.07L28.73-2.07Q29.04-1.50 29.58-1.50L29.58-1.50L29.58-1.50Q30.67-1.50 31.47-2.53L31.47-2.53L31.47-2.53Q32.27-3.57 32.57-5.41L32.57-5.41L34.37-15.37L34.37-15.37Q33.66-15.98 32.83-15.98L32.83-15.98L32.83-15.98Q31.99-15.98 31.50-15.71L31.50-15.71L31.50-15.71Q31.01-15.44 30.62-14.82ZM53.48-11.93L53.48-11.93L53.48-11.93Q53.96-13.19 53.96-14.28L53.96-14.28L53.96-14.28Q53.96-16.29 52.33-16.29L52.33-16.29L52.33-16.29Q51.48-16.29 50.78-15.52L50.78-15.52L50.78-15.52Q50.08-14.76 50.08-13.80L50.08-13.80L50.08-13.80Q50.08-13.12 50.63-12.58L50.63-12.58L50.63-12.58Q51.41-11.83 53.41-10.61L53.41-10.61L53.41-10.61Q55.42-9.38 56.19-8.38L56.19-8.38L56.19-8.38Q56.95-7.38 56.95-6.00L56.95-6.00L56.95-6.00Q56.95-4.62 56.29-3.37L56.29-3.37L56.29-3.37Q55.62-2.11 54.43-1.22L54.43-1.22L54.43-1.22Q51.88 0.68 47.80 0.68L47.80 0.68L47.80 0.68Q45.59 0.68 43.89-0.48L43.89-0.48L43.89-0.48Q42.19-1.60 42.19-2.92L42.19-2.92L42.19-2.92Q42.19-4.25 43.16-5.03L43.16-5.03L43.16-5.03Q44.13-5.81 45.56-5.81L45.56-5.81L45.56-5.81Q46.99-5.81 47.87-5.27L47.87-5.27L47.87-5.27Q47.43-4.15 47.43-3.40L47.43-3.40L47.43-3.40Q47.43-1.16 49.33-1.16L49.33-1.16L49.33-1.16Q50.15-1.16 50.69-1.67L50.69-1.67L50.69-1.67Q51.24-2.18 51.24-3.06L51.24-3.06L51.24-3.06Q51.24-4.79 48.31-6.63L48.31-6.63L48.31-6.63Q45.93-8.19 45.39-8.81L45.39-8.81L45.39-8.81Q44.47-9.89 44.47-11.25L44.47-11.25L44.47-11.25Q44.47-12.61 45.12-13.91L45.12-13.91L45.12-13.91Q45.76-15.20 46.95-16.12L46.95-16.12L46.95-16.12Q49.44-18.02 53.75-18.02L53.75-18.02L53.75-18.02Q55.96-18.02 57.27-17.14L57.27-17.14L57.27-17.14Q58.58-16.25 58.58-14.76L58.58-14.76L58.58-14.76Q58.58-13.26 57.68-12.41L57.68-12.41L57.68-12.41Q56.78-11.56 55.15-11.56L55.15-11.56L55.15-11.56Q54.03-11.56 53.48-11.93ZM61.32-1.02L61.32-1.02L61.32-1.02Q60.52-1.90 60.16-3.30L60.16-3.30L60.16-3.30Q59.81-4.69 59.81-6.97L59.81-6.97L59.81-6.97Q59.81-9.25 60.59-11.32L60.59-11.32L60.59-11.32Q61.37-13.40 62.80-14.89L62.80-14.89L62.80-14.89Q65.72-18.02 70.55-18.02L70.55-18.02L70.55-18.02Q72.28-18.02 73.54-17.44L73.54-17.44L79.36-18.02L76.84-4.76L76.84-4.76Q76.74-4.35 76.74-3.60L76.74-3.60L76.74-3.60Q76.74-2.86 77.20-2.38L77.20-2.38L77.20-2.38Q77.66-1.90 78.34-1.84L78.34-1.84L78.34-1.84Q78.00-0.68 76.75 0L76.75 0L76.75 0Q75.51 0.68 74.12 0.68L74.12 0.68L74.12 0.68Q72.73 0.68 71.79 0.15L71.79 0.15L71.79 0.15Q70.86-0.37 70.58-1.26L70.58-1.26L70.58-1.26Q70.04-0.41 68.88 0.14L68.88 0.14L68.88 0.14Q67.73 0.68 66.18 0.68L66.18 0.68L66.18 0.68Q64.63 0.68 63.38 0.27L63.38 0.27L63.38 0.27Q62.12-0.14 61.32-1.02ZM68.49-14.82L68.49-14.82L68.49-14.82Q68.10-14.21 67.76-13.18L67.76-13.18L67.76-13.18Q67.42-12.14 66.86-9.37L66.86-9.37L66.86-9.37Q66.30-6.60 66.30-4.62L66.30-4.62L66.30-4.62Q66.30-2.65 66.61-2.07L66.61-2.07L66.61-2.07Q66.91-1.50 67.46-1.50L67.46-1.50L67.46-1.50Q68.54-1.50 69.34-2.53L69.34-2.53L69.34-2.53Q70.14-3.57 70.45-5.41L70.45-5.41L72.25-15.37L72.25-15.37Q71.54-15.98 70.70-15.98L70.70-15.98L70.70-15.98Q69.87-15.98 69.38-15.71L69.38-15.71L69.38-15.71Q68.88-15.44 68.49-14.82ZM95.57 0.68L95.57 0.68L95.57 0.68Q91.46 0.68 91.46-2.52L91.46-2.52L91.46-2.52Q91.49-3.40 91.77-4.90L91.77-4.90L92.38-8.02L92.38-8.02Q93.30-12.44 93.30-13.43L93.30-13.43L93.30-13.43Q93.30-15.40 92.14-15.40L92.14-15.40L92.14-15.40Q90.20-15.40 89.18-10.34L89.18-10.34L87.18 0L80.34 0.68L83.88-17.37L89.45-18.02L88.91-14.69L88.91-14.69Q90.51-18.02 95.40-18.02L95.40-18.02L95.40-18.02Q97.78-18.02 98.79-17.02L98.79-17.02L98.79-17.02Q99.79-16.01 99.79-13.77L99.79-13.77L99.79-13.77Q99.79-11.66 98.70-6.73L98.70-6.73L98.70-6.73Q98.19-4.52 98.19-3.69L98.19-3.69L98.19-3.69Q98.19-2.86 98.65-2.38L98.65-2.38L98.65-2.38Q99.11-1.90 99.79-1.84L99.79-1.84L99.79-1.84Q99.45-0.68 98.28 0L98.28 0L98.28 0Q97.10 0.68 95.57 0.68ZM109.07-1.63L109.07-1.63L113.29-23.80L120.19-24.48L119.14-19.28L119.14-19.28Q118.76-17.68 118.29-16.56L118.29-16.56L118.29-16.56Q119.03-17.51 120.67-17.88L120.67-17.88L120.67-17.88Q121.14-18.02 121.72-18.02L121.72-18.02L121.72-18.02Q124.88-18.02 126.62-16.10L126.62-16.10L126.62-16.10Q128.35-14.18 128.35-10.47L128.35-10.47L128.35-10.47Q128.35-5.64 125.60-2.62L125.60-2.62L125.60-2.62Q122.64 0.68 117.27 0.68L117.27 0.68L117.27 0.68Q113.56 0.68 110.77-0.54L110.77-0.54L110.77-0.54Q109.79-0.99 109.07-1.63ZM117.71-11.90L115.91-1.94L115.91-1.94Q116.62-1.33 117.50-1.33L117.50-1.33L117.50-1.33Q118.39-1.33 118.90-1.67L118.90-1.67L118.90-1.67Q119.41-2.01 119.78-2.69L119.78-2.69L119.78-2.69Q120.80-4.52 121.62-10.13L121.62-10.13L121.62-10.13Q121.86-11.73 121.86-13.33L121.86-13.33L121.86-13.33Q121.86-14.93 121.50-15.44L121.50-15.44L121.50-15.44Q121.14-15.95 120.46-15.95L120.46-15.95L120.46-15.95Q118.39-15.95 117.71-11.90L117.71-11.90ZM129.37-2.01L129.37-2.01L129.37-2.01Q129.37-3.30 130.37-4.01L130.37-4.01L130.37-4.01Q131.38-4.73 132.80-4.73L132.80-4.73L132.80-4.73Q134.23-4.73 135.10-4.01L135.10-4.01L135.10-4.01Q135.97-3.30 135.97-2.01L135.97-2.01L135.97-2.01Q135.97-0.71 135.00-0.02L135.00-0.02L135.00-0.02Q134.03 0.68 132.60 0.68L132.60 0.68L132.60 0.68Q131.17 0.68 130.27-0.02L130.27-0.02L130.27-0.02Q129.37-0.71 129.37-2.01Z" fill="#ccc"></path></g></g><style>text {
  font-size: 64px;
  font-family: Arial Black;
  dominant-baseline: central;
  text-anchor: middle;
}</style></svg>