<svg width="375.89492187499997px" height="122.021240234375px" xmlns="http://www.w3.org/2000/svg" viewBox="62.05253906250002 13.9893798828125 375.89492187499997 122.021240234375" style="background: rgba(0, 0, 0, 0);" preserveAspectRatio="xMidYMid"><defs><filter id="editing-extrusion" x="-100%" y="-100%" width="300%" height="300%"><feFlood result="color1" flood-color="#444"></feFlood><feConvolveMatrix order="8,8" divisor="1" kernelMatrix="1 0 0 0 0 0 0 0 0 1 0 0 0 0 0 0 0 0 1 0 0 0 0 0 0 0 0 1 0 0 0 0 0 0 0 0 1 0 0 0 0 0 0 0 0 1 0 0 0 0 0 0 0 0 1 0 0 0 0 0 0 0 0 1" in="SourceAlpha" result="extrude"></feConvolveMatrix><feComposite in="color1" in2="extrude" result="comp-extrude" operator="in"></feComposite><feOffset dx="4" dy="4" in="comp-extrude" result="offset-extrude"></feOffset><feMerge><feMergeNode in="offset-extrude"></feMergeNode><feMergeNode in="SourceGraphic"></feMergeNode></feMerge></filter></defs><g filter="url(#editing-extrusion)"><g transform="translate(121.84749388694763, 98.67218780517578)"><path d="M33.28-7.10L33.28-7.10L33.28-7.10Q33.28-4.29 36.16-3.46L36.16-3.46L36.16-3.46Q35.46-1.09 32.70 0.19L32.70 0.19L32.70 0.19Q30.40 1.28 27.87 1.28L27.87 1.28L27.87 1.28Q25.34 1.28 24.03 0.61L24.03 0.61L24.03 0.61Q22.72-0.06 22.02-1.15L22.02-1.15L22.02-1.15Q20.86-2.82 20.86-5.95L20.86-5.95L20.86-5.95Q20.86-7.81 21.89-12.93L21.89-12.93L22.78-17.79L22.78-17.79Q23.87-23.36 23.87-25.41L23.87-25.41L23.87-25.41Q23.87-28.99 21.89-28.99L21.89-28.99L21.89-28.99Q19.39-28.99 17.79-25.34L17.79-25.34L17.79-25.34Q17.15-23.94 16.70-21.82L16.70-21.82L12.35 0L-0.51 1.28L8.51-44.80L21.38-46.08L20.86-43.52L20.86-43.52Q19.07-33.66 17.54-30.34L17.54-30.34L17.54-30.34Q21.12-33.92 27.71-33.92L27.71-33.92L27.71-33.92Q34.69-33.92 35.97-29.31L35.97-29.31L35.97-29.31Q36.42-27.84 36.42-26.56L36.42-26.56L36.42-26.56Q36.42-25.28 36.32-24.29L36.32-24.29L36.32-24.29Q36.22-23.30 35.90-21.50L35.90-21.50L35.07-16.90L33.60-9.66L33.60-9.66Q33.28-8.19 33.28-7.10ZM44.13-1.92L44.13-1.92L44.13-1.92Q42.62-3.58 41.95-6.21L41.95-6.21L41.95-6.21Q41.28-8.83 41.28-13.12L41.28-13.12L41.28-13.12Q41.28-17.41 42.75-21.31L42.75-21.31L42.75-21.31Q44.22-25.22 46.91-28.03L46.91-28.03L46.91-28.03Q52.42-33.92 61.50-33.92L61.50-33.92L61.50-33.92Q64.77-33.92 67.14-32.83L67.14-32.83L78.08-33.92L73.34-8.96L73.34-8.96Q73.15-8.19 73.15-6.78L73.15-6.78L73.15-6.78Q73.15-5.38 74.02-4.48L74.02-4.48L74.02-4.48Q74.88-3.58 76.16-3.46L76.16-3.46L76.16-3.46Q75.52-1.28 73.18 0L73.18 0L73.18 0Q70.85 1.28 68.22 1.28L68.22 1.28L68.22 1.28Q65.60 1.28 63.84 0.29L63.84 0.29L63.84 0.29Q62.08-0.70 61.57-2.37L61.57-2.37L61.57-2.37Q60.54-0.77 58.37 0.26L58.37 0.26L58.37 0.26Q56.19 1.28 53.28 1.28L53.28 1.28L53.28 1.28Q50.37 1.28 48 0.51L48 0.51L48 0.51Q45.63-0.26 44.13-1.92ZM57.63-27.90L57.63-27.90L57.63-27.90Q56.90-26.75 56.26-24.80L56.26-24.80L56.26-24.80Q55.62-22.85 54.56-17.63L54.56-17.63L54.56-17.63Q53.50-12.42 53.50-8.70L53.50-8.70L53.50-8.70Q53.50-4.99 54.08-3.90L54.08-3.90L54.08-3.90Q54.66-2.82 55.68-2.82L55.68-2.82L55.68-2.82Q57.73-2.82 59.23-4.77L59.23-4.77L59.23-4.77Q60.74-6.72 61.31-10.18L61.31-10.18L64.70-28.93L64.70-28.93Q63.36-30.08 61.79-30.08L61.79-30.08L61.79-30.08Q60.22-30.08 59.30-29.57L59.30-29.57L59.30-29.57Q58.37-29.06 57.63-27.90ZM100.67-22.46L100.67-22.46L100.67-22.46Q101.57-24.83 101.57-26.88L101.57-26.88L101.57-26.88Q101.57-30.66 98.50-30.66L98.50-30.66L98.50-30.66Q96.90-30.66 95.58-29.22L95.58-29.22L95.58-29.22Q94.27-27.78 94.27-25.98L94.27-25.98L94.27-25.98Q94.27-24.70 95.30-23.68L95.30-23.68L95.30-23.68Q96.77-22.27 100.54-19.97L100.54-19.97L100.54-19.97Q104.32-17.66 105.76-15.78L105.76-15.78L105.76-15.78Q107.20-13.89 107.20-11.30L107.20-11.30L107.20-11.30Q107.20-8.70 105.95-6.34L105.95-6.34L105.95-6.34Q104.70-3.97 102.46-2.30L102.46-2.30L102.46-2.30Q97.66 1.28 89.98 1.28L89.98 1.28L89.98 1.28Q85.82 1.28 82.62-0.90L82.62-0.90L82.62-0.90Q79.42-3.01 79.42-5.50L79.42-5.50L79.42-5.50Q79.42-8 81.25-9.47L81.25-9.47L81.25-9.47Q83.07-10.94 85.76-10.94L85.76-10.94L85.76-10.94Q88.45-10.94 90.11-9.92L90.11-9.92L90.11-9.92Q89.28-7.81 89.28-6.40L89.28-6.40L89.28-6.40Q89.28-2.18 92.86-2.18L92.86-2.18L92.86-2.18Q94.40-2.18 95.42-3.14L95.42-3.14L95.42-3.14Q96.45-4.10 96.45-5.76L96.45-5.76L96.45-5.76Q96.45-9.02 90.94-12.48L90.94-12.48L90.94-12.48Q86.46-15.42 85.44-16.58L85.44-16.58L85.44-16.58Q83.71-18.62 83.71-21.18L83.71-21.18L83.71-21.18Q83.71-23.74 84.93-26.18L84.93-26.18L84.93-26.18Q86.14-28.61 88.38-30.34L88.38-30.34L88.38-30.34Q93.06-33.92 101.18-33.92L101.18-33.92L101.18-33.92Q105.34-33.92 107.81-32.26L107.81-32.26L107.81-32.26Q110.27-30.59 110.27-27.78L110.27-27.78L110.27-27.78Q110.27-24.96 108.58-23.36L108.58-23.36L108.58-23.36Q106.88-21.76 103.81-21.76L103.81-21.76L103.81-21.76Q101.70-21.76 100.67-22.46ZM115.42-1.92L115.42-1.92L115.42-1.92Q113.92-3.58 113.25-6.21L113.25-6.21L113.25-6.21Q112.58-8.83 112.58-13.12L112.58-13.12L112.58-13.12Q112.58-17.41 114.05-21.31L114.05-21.31L114.05-21.31Q115.52-25.22 118.21-28.03L118.21-28.03L118.21-28.03Q123.71-33.92 132.80-33.92L132.80-33.92L132.80-33.92Q136.06-33.92 138.43-32.83L138.43-32.83L149.38-33.92L144.64-8.96L144.64-8.96Q144.45-8.19 144.45-6.78L144.45-6.78L144.45-6.78Q144.45-5.38 145.31-4.48L145.31-4.48L145.31-4.48Q146.18-3.58 147.46-3.46L147.46-3.46L147.46-3.46Q146.82-1.28 144.48 0L144.48 0L144.48 0Q142.14 1.28 139.52 1.28L139.52 1.28L139.52 1.28Q136.90 1.28 135.14 0.29L135.14 0.29L135.14 0.29Q133.38-0.70 132.86-2.37L132.86-2.37L132.86-2.37Q131.84-0.77 129.66 0.26L129.66 0.26L129.66 0.26Q127.49 1.28 124.58 1.28L124.58 1.28L124.58 1.28Q121.66 1.28 119.30 0.51L119.30 0.51L119.30 0.51Q116.93-0.26 115.42-1.92ZM128.93-27.90L128.93-27.90L128.93-27.90Q128.19-26.75 127.55-24.80L127.55-24.80L127.55-24.80Q126.91-22.85 125.86-17.63L125.86-17.63L125.86-17.63Q124.80-12.42 124.80-8.70L124.80-8.70L124.80-8.70Q124.80-4.99 125.38-3.90L125.38-3.90L125.38-3.90Q125.95-2.82 126.98-2.82L126.98-2.82L126.98-2.82Q129.02-2.82 130.53-4.77L130.53-4.77L130.53-4.77Q132.03-6.72 132.61-10.18L132.61-10.18L136-28.93L136-28.93Q134.66-30.08 133.09-30.08L133.09-30.08L133.09-30.08Q131.52-30.08 130.59-29.57L130.59-29.57L130.59-29.57Q129.66-29.06 128.93-27.90ZM179.90 1.28L179.90 1.28L179.90 1.28Q172.16 1.28 172.16-4.74L172.16-4.74L172.16-4.74Q172.22-6.40 172.74-9.22L172.74-9.22L173.89-15.10L173.89-15.10Q175.62-23.42 175.62-25.28L175.62-25.28L175.62-25.28Q175.62-28.99 173.44-28.99L173.44-28.99L173.44-28.99Q169.79-28.99 167.87-19.46L167.87-19.46L164.10 0L151.23 1.28L157.89-32.70L168.38-33.92L167.36-27.65L167.36-27.65Q170.37-33.92 179.58-33.92L179.58-33.92L179.58-33.92Q184.06-33.92 185.95-32.03L185.95-32.03L185.95-32.03Q187.84-30.14 187.84-25.92L187.84-25.92L187.84-25.92Q187.84-21.95 185.79-12.67L185.79-12.67L185.79-12.67Q184.83-8.51 184.83-6.94L184.83-6.94L184.83-6.94Q184.83-5.38 185.70-4.48L185.70-4.48L185.70-4.48Q186.56-3.58 187.84-3.46L187.84-3.46L187.84-3.46Q187.20-1.28 184.99 0L184.99 0L184.99 0Q182.78 1.28 179.90 1.28ZM205.31-3.07L205.31-3.07L213.25-44.80L226.24-46.08L224.26-36.29L224.26-36.29Q223.55-33.28 222.66-31.17L222.66-31.17L222.66-31.17Q224.06-32.96 227.14-33.66L227.14-33.66L227.14-33.66Q228.03-33.92 229.12-33.92L229.12-33.92L229.12-33.92Q235.07-33.92 238.34-30.30L238.34-30.30L238.34-30.30Q241.60-26.69 241.60-19.71L241.60-19.71L241.60-19.71Q241.60-10.62 236.42-4.93L236.42-4.93L236.42-4.93Q230.85 1.28 220.74 1.28L220.74 1.28L220.74 1.28Q213.76 1.28 208.51-1.02L208.51-1.02L208.51-1.02Q206.66-1.86 205.31-3.07ZM221.57-22.40L218.18-3.65L218.18-3.65Q219.52-2.50 221.18-2.50L221.18-2.50L221.18-2.50Q222.85-2.50 223.81-3.14L223.81-3.14L223.81-3.14Q224.77-3.78 225.47-5.06L225.47-5.06L225.47-5.06Q227.39-8.51 228.93-19.07L228.93-19.07L228.93-19.07Q229.38-22.08 229.38-25.09L229.38-25.09L229.38-25.09Q229.38-28.10 228.70-29.06L228.70-29.06L228.70-29.06Q228.03-30.02 226.75-30.02L226.75-30.02L226.75-30.02Q222.85-30.02 221.57-22.40L221.57-22.40ZM243.52-3.78L243.52-3.78L243.52-3.78Q243.52-6.21 245.41-7.55L245.41-7.55L245.41-7.55Q247.30-8.90 249.98-8.90L249.98-8.90L249.98-8.90Q252.67-8.90 254.30-7.55L254.30-7.55L254.30-7.55Q255.94-6.21 255.94-3.78L255.94-3.78L255.94-3.78Q255.94-1.34 254.11-0.03L254.11-0.03L254.11-0.03Q252.29 1.28 249.60 1.28L249.60 1.28L249.60 1.28Q246.91 1.28 245.22-0.03L245.22-0.03L245.22-0.03Q243.52-1.34 243.52-3.78Z" fill="#ccc"></path></g></g><style>text {
  font-size: 64px;
  font-family: Arial Black;
  dominant-baseline: central;
  text-anchor: middle;
}</style></svg>